<?xml version="1.0" encoding="UTF-8" standalone="no"?>
<svg
   xmlns:dc="http://purl.org/dc/elements/1.1/"
   xmlns:cc="http://creativecommons.org/ns#"
   xmlns:rdf="http://www.w3.org/1999/02/22-rdf-syntax-ns#"
   xmlns:svg="http://www.w3.org/2000/svg"
   xmlns="http://www.w3.org/2000/svg"
   xmlns:sodipodi="http://sodipodi.sourceforge.net/DTD/sodipodi-0.dtd"
   xmlns:inkscape="http://www.inkscape.org/namespaces/inkscape"
   width="370"
   height="370"
   viewBox="0 0 296 296.00001"
   id="svg2"
   version="1.1"
   inkscape:version="0.91 r13725"
   sodipodi:docname="kalpha.svg"
   inkscape:export-filename="kalpha.png"
   inkscape:export-xdpi="68.449997"
   inkscape:export-ydpi="68.449997">
  <metadata
     id="metadata20">
    <rdf:RDF>
      <cc:Work
         rdf:about="">
        <dc:format>image/svg+xml</dc:format>
        <dc:type
           rdf:resource="http://purl.org/dc/dcmitype/StillImage" />
        <dc:title />
      </cc:Work>
    </rdf:RDF>
  </metadata>
  <defs
     id="defs18" />
  <sodipodi:namedview
     pagecolor="#ffffff"
     bordercolor="#666666"
     borderopacity="1"
     objecttolerance="10"
     gridtolerance="10"
     guidetolerance="10"
     inkscape:pageopacity="0"
     inkscape:pageshadow="2"
     inkscape:window-width="1855"
     inkscape:window-height="1056"
     id="namedview16"
     showgrid="false"
     fit-margin-left="5"
     fit-margin-top="5"
     fit-margin-bottom="5"
     fit-margin-right="5"
     inkscape:zoom="0.25170407"
     inkscape:cx="952.77783"
     inkscape:cy="-272.8659"
     inkscape:window-x="65"
     inkscape:window-y="24"
     inkscape:window-maximized="1"
     inkscape:current-layer="svg2" />
  <g
     transform="matrix(-1,0,0,-1,513.15432,196.41911)"
     style="fill:#e94e09;fill-rule:nonzero;stroke:none"
     id="g8106" />
  <g
     transform="translate(-129.4631,489.28647)"
     style="fill:#6541a5;fill-rule:nonzero;stroke:none;fill-opacity:1"
     id="g8080">
    <path
       style="fill:#6541a5;fill-opacity:1"
       d="m 219.435,142.691 c -27.178,1.942 -22.91541,-11.405 -28.25341,-26.935 -9.07885,-38.566863 -10.14088,-85.922067 3.7356,-108.4699 l -22.85215,0 c -29.60119,51.270764 -0.52293,151.4209 20.67696,151.4209 16.977,0 27.73,-9.319 33.512,-16.522 -2.076,0.16 -4.332,0.328 -6.819,0.506 z"
       id="path8082"
       inkscape:connector-curvature="0"
       sodipodi:nodetypes="ccccccc" />
  </g>
  <g
     id="g8115"
     transform="translate(20.622602,10.963052)"
     style="fill:#6541a5;fill-opacity:1">
    <g
       transform="translate(43.618131,102.22152)"
       style="fill:#6541a5;fill-rule:nonzero;stroke:none;fill-opacity:1"
       id="g8092">
      <path
         style="fill:#6541a5;fill-opacity:1"
         d="m 219.435,142.691 c -27.178,1.942 -33.245,-11.405 -38.583,-26.935 -3.864,-11.24 -8.25,-25.3977 -10.224,-32.2197 12.491,-19.179 26.968,-42.207 48.524,-76.2502 0,0 -40.333,0 -40.333,0 -7.171,11.2442 -14.254,22.6292 -21.264,33.7662 -2.002,-5.605 -4.759,-11.641 -7.964,-16.771 C 140.309,9.9004 125.711,0 103.955,1.332 75.195,3.0938 53.47,16.876 35.934,34.4113 19.855,50.4903 4.1709,73.9723 2.3877,100.571 0,136.177 26.012,156.572 55.501,158.808 c 23.304,1.769 40.755,-4.426 55.443,-12.113 9.971,-5.217 31.185,-22.894 37.534,-30.775 4.712,21.849 16.872,42.787 44.264,42.787 16.977,0 27.73,-9.319 33.512,-16.522 -2.076,0.16 -4.332,0.328 -6.819,0.506 z M 88.581,129.457 c -6.291,4.558 -14.359,9.4 -22.83,10.716 -21.063,3.27 -30.352,-13.083 -28.886,-34.944 1.144,-17.0677 7.915,-32.8807 15.841,-46.5907 8.123,-14.052 17.608,-26.504 28.421,-34.01 3.861,-2.682 9.66,-5.877 17.704,-6.523 19.358,-1.5545 26.482,19.389 31.407,36.939 2.3,8.237 3.849,16.615 4.596,21.021 -5.52,8.103 -22.655,36.2937 -46.253,53.3917 z"
         id="path8094"
         inkscape:connector-curvature="0" />
      <path
         inkscape:connector-curvature="0"
         id="path8088"
         d="m 219.435,142.691 c -27.178,1.942 -33.245,-11.405 -38.583,-26.935 -3.864,-11.24 -8.25,-25.3977 -10.224,-32.2197 12.491,-19.179 26.968,-42.207 48.524,-76.2502 0,0 -40.333,0 -40.333,0 -7.171,11.2442 -14.254,22.6292 -21.264,33.7662 -2.002,-5.605 -4.759,-11.641 -7.964,-16.771 C 140.309,9.9004 125.711,0 103.955,1.332 75.195,3.0938 53.47,16.876 35.934,34.4113 19.855,50.4903 4.1709,73.9723 2.3877,100.571 0,136.177 26.012,156.572 55.501,158.808 c 23.304,1.769 40.755,-4.426 55.443,-12.113 9.971,-5.217 31.185,-22.894 37.534,-30.775 4.712,21.849 16.872,42.787 44.264,42.787 16.977,0 27.73,-9.319 33.512,-16.522 -2.076,0.16 -4.332,0.328 -6.819,0.506 z M 88.581,129.457 c -6.291,4.558 -14.359,9.4 -22.83,10.716 -21.063,3.27 -30.352,-13.083 -28.886,-34.944 1.144,-17.0677 7.915,-32.8807 15.841,-46.5907 8.123,-14.052 17.608,-26.504 28.421,-34.01 3.861,-2.682 9.66,-5.877 17.704,-6.523 19.358,-1.5545 26.482,19.389 31.407,36.939 2.3,8.237 3.849,16.615 4.596,21.021 -5.52,8.103 -22.655,36.2937 -46.253,53.3917 z"
         style="fill:#6541a5;fill-opacity:1" />
    </g>
    <path
       style="fill:#6541a5;fill-rule:nonzero;stroke:none;fill-opacity:1"
       d="M -6.9385877,241.8906 C 25.658858,244.21984 32.935652,228.21138 39.338079,209.58461 57.319806,163.05607 54.71566,43.370793 36.193034,12.740145 l 43.321426,0 c 11.917799,40.693248 9.659762,156.617255 -1.346825,197.041165 -7.075881,21.56457 -20.236372,51.31897 -53.090489,51.31897 -20.362308,0 -33.2595173,-11.17726 -40.194481,-19.81658 2.489966,0.1919 5.1958254,0.3934 8.1787473,0.6069 z"
       id="path8092"
       inkscape:connector-curvature="0"
       sodipodi:nodetypes="cccccscc" />
  </g>
  <g
     transform="translate(-558.04983,408.60513)"
     style="fill:#6541a5;fill-rule:nonzero;stroke:none;fill-opacity:1"
     id="g8099">
    <path
       style="fill:#6541a5;fill-opacity:1"
       d="m 219.435,142.691 c -27.178,1.942 -33.245,-11.405 -38.583,-26.935 -3.864,-11.24 -8.25,-25.3977 -10.224,-32.2197 12.491,-19.179 26.968,-42.207 48.524,-76.2502 0,0 -40.333,0 -40.333,0 -7.171,11.2442 -14.254,22.6292 -21.264,33.7662 -2.002,-5.605 -4.759,-11.641 -7.964,-16.771 C 140.309,9.9004 125.711,0 103.955,1.332 75.195,3.0938 53.47,16.876 35.934,34.4113 19.855,50.4903 4.1709,73.9723 2.3877,100.571 0,136.177 26.012,156.572 55.501,158.808 c 23.304,1.769 40.755,-4.426 55.443,-12.113 9.971,-5.217 31.185,-22.894 37.534,-30.775 4.712,21.849 16.872,42.787 44.264,42.787 16.977,0 27.73,-9.319 33.512,-16.522 -2.076,0.16 -4.332,0.328 -6.819,0.506 z M 88.581,129.457 c -6.291,4.558 -14.359,9.4 -22.83,10.716 -21.063,3.27 -30.352,-13.083 -28.886,-34.944 1.144,-17.0677 7.915,-32.8807 15.841,-46.5907 8.123,-14.052 17.608,-26.504 28.421,-34.01 3.861,-2.682 9.66,-5.877 17.704,-6.523 19.358,-1.5545 26.482,19.389 31.407,36.939 2.3,8.237 3.849,16.615 4.596,21.021 -5.52,8.103 -22.655,36.2937 -46.253,53.3917 z"
       id="path8101"
       inkscape:connector-curvature="0" />
    <path
       inkscape:connector-curvature="0"
       id="path8103"
       d="m 219.435,142.691 c -27.178,1.942 -33.245,-11.405 -38.583,-26.935 -3.864,-11.24 -8.25,-25.3977 -10.224,-32.2197 12.491,-19.179 26.968,-42.207 48.524,-76.2502 0,0 -40.333,0 -40.333,0 -7.171,11.2442 -14.254,22.6292 -21.264,33.7662 -2.002,-5.605 -4.759,-11.641 -7.964,-16.771 C 140.309,9.9004 125.711,0 103.955,1.332 75.195,3.0938 53.47,16.876 35.934,34.4113 19.855,50.4903 4.1709,73.9723 2.3877,100.571 0,136.177 26.012,156.572 55.501,158.808 c 23.304,1.769 40.755,-4.426 55.443,-12.113 9.971,-5.217 31.185,-22.894 37.534,-30.775 4.712,21.849 16.872,42.787 44.264,42.787 16.977,0 27.73,-9.319 33.512,-16.522 -2.076,0.16 -4.332,0.328 -6.819,0.506 z M 88.581,129.457 c -6.291,4.558 -14.359,9.4 -22.83,10.716 -21.063,3.27 -30.352,-13.083 -28.886,-34.944 1.144,-17.0677 7.915,-32.8807 15.841,-46.5907 8.123,-14.052 17.608,-26.504 28.421,-34.01 3.861,-2.682 9.66,-5.877 17.704,-6.523 19.358,-1.5545 26.482,19.389 31.407,36.939 2.3,8.237 3.849,16.615 4.596,21.021 -5.52,8.103 -22.655,36.2937 -46.253,53.3917 z"
       style="fill:#6541a5;fill-opacity:1" />
  </g>
  <g
     transform="translate(-558.04983,745.71853)"
     style="fill:#6541a5;fill-rule:nonzero;stroke:none;fill-opacity:1"
     id="g8105">
    <path
       style="fill:#6541a5;fill-opacity:1"
       d="m -49.609023,-204.12979 c 44.0068104,3.1445 37.104795,-18.46706 45.7481219,-43.61335 14.7005381,-62.44773 16.4201851,-139.12562 -6.0487101,-175.63523 l 36.4405082,0 c 19.066676,71.15781 1.408588,245.1818 -32.9184251,245.1818 -27.4892789,0 -44.9006129,-15.08939 -54.2628689,-26.75254 3.361474,0.25907 7.014406,0.5311 11.041374,0.81932 z"
       id="path8107"
       inkscape:connector-curvature="0"
       sodipodi:nodetypes="ccccccc" />
  </g>
  <path
     style="fill:#6541a5;fill-rule:nonzero;stroke:none;fill-opacity:1"
     d="m 225.84574,633.52856 c -27.178,1.942 -33.245,-11.405 -38.583,-26.935 -14.99219,-38.79299 -12.821,-82.93171 2.62217,-108.4699 l -36.11907,0 c -9.93642,33.92784 -8.05379,74.93062 1.12291,108.6339 5.89949,17.97938 16.872,42.787 44.26399,42.787 16.977,0 27.73,-9.319 33.512,-16.522 -2.076,0.16 -4.332,0.328 -6.819,0.506 z"
     id="path8109"
     inkscape:connector-curvature="0"
     sodipodi:nodetypes="cccccscc" />
  <path
     style="fill:#6541a5;fill-rule:nonzero;stroke:none;fill-opacity:1"
     d="m 124.24368,1082.696 c 32.59744,2.3293 39.87424,-13.6792 46.27666,-32.306 17.98173,-46.5285 15.37758,-166.21379 -3.14504,-196.84444 l 43.32142,0 c 11.9178,40.69325 9.65977,156.61724 -1.34682,197.04114 -7.07588,21.5646 -20.23637,51.319 -53.09049,51.319 -20.36231,0 -33.25952,-11.1773 -40.19448,-19.8166 2.48996,0.1919 5.19582,0.3934 8.17875,0.6069 z"
     id="path8111"
     inkscape:connector-curvature="0"
     sodipodi:nodetypes="cccccscc" />
  <path
     sodipodi:nodetypes="cccccscc"
     inkscape:connector-curvature="0"
     id="path8113"
     d="m 153.93484,807.70381 c 27.178,1.942 33.245,-11.405 38.583,-26.935 14.99219,-38.79299 12.821,-82.93171 -2.62217,-108.4699 l 36.11907,0 c 9.93642,33.92784 8.05379,74.93062 -1.12291,108.6339 -5.89949,17.97938 -16.872,42.787 -44.26399,42.787 -16.977,0 -27.73,-9.319 -33.512,-16.522 2.076,0.16 4.332,0.328 6.819,0.506 z"
     style="fill:#6541a5;fill-rule:nonzero;stroke:none;fill-opacity:1" />
</svg>
